<svg xmlns="http://www.w3.org/2000/svg" width="216.136" height="171.107" class="w-6 fill-current"><path data-name="2111543" d="M198.89 20.11l17.246-16.5V0h-59.744l-42.579 105.979L65.372 0H2.729v3.611l20.145 24.252a8.453 8.453 0 012.726 7.052v95.307a10.868 10.868 0 01-2.909 9.456L0 167.181v3.566h64.345v-3.611l-22.694-27.458a11.2 11.2 0 01-3.125-9.456V47.784L95.01 170.792h6.565l48.567-123.008v97.991c0 2.585 0 3.116-1.693 4.809l-17.471 16.9v3.62h84.761V167.5L198.9 151.007a5.009 5.009 0 01-1.927-4.809V24.919a4.988 4.988 0 011.918-4.809z"/></svg>