<svg xmlns="http://www.w3.org/2000/svg" width="200" height="200" viewBox="0 0 200 200">
  <path id="telegram" d="M100,8A100,100,0,1,0,200,108,99.983,99.983,0,0,0,100,8Zm49.113,68.508L132.7,153.847c-1.21,5.484-4.476,6.815-9.032,4.234l-25-18.427L86.613,151.266c-1.331,1.331-2.46,2.46-5.04,2.46l1.774-25.444,46.331-41.855c2.016-1.774-.444-2.782-3.1-1.008L69.315,121.468l-24.677-7.7c-5.363-1.694-5.484-5.363,1.129-7.944l96.411-37.177C146.653,67.032,150.564,69.734,149.113,76.508Z" transform="translate(0 -8)" fill="#fff"/>
</svg>
