<svg id="menu_book-24px_1_" data-name="menu_book-24px (1)" xmlns="http://www.w3.org/2000/svg" width="201" height="201" viewBox="0 0 201 201">
  <g id="Groupe_3" data-name="Groupe 3">
    <rect id="Rectangle_5" data-name="Rectangle 5" width="201" height="201" fill="none"/>
  </g>
  <g id="Groupe_6" data-name="Groupe 6" transform="translate(8 20)">
    <g id="Groupe_5" data-name="Groupe 5">
      <path id="Tracé_3" data-name="Tracé 3" d="M168.366,8.684A98.785,98.785,0,0,0,139.077,4.5c-16.318,0-33.892,3.347-46.026,12.552C80.917,7.847,63.344,4.5,47.026,4.5S13.134,7.847,1,17.052v122.6a4.5,4.5,0,0,0,4.184,4.184c.837,0,1.255-.418,2.092-.418,11.3-5.439,27.615-9.205,39.749-9.205,16.318,0,33.892,3.347,46.026,12.552,11.3-7.113,31.8-12.552,46.026-12.552,13.808,0,28.034,2.51,39.749,8.787a3.772,3.772,0,0,0,2.092.418,4.5,4.5,0,0,0,4.184-4.184V17.052A57.077,57.077,0,0,0,168.366,8.684Zm0,112.972a97.243,97.243,0,0,0-29.289-4.184c-14.226,0-34.728,5.439-46.026,12.552V33.789c11.3-7.113,31.8-12.552,46.026-12.552a97.243,97.243,0,0,1,29.289,4.184Z" transform="translate(-1 -4.5)" fill="#fff"/>
      <g id="Groupe_4" data-name="Groupe 4" transform="translate(100.42 37.657)">
        <path id="Tracé_4" data-name="Tracé 4" d="M50.657,21.552a97.86,97.86,0,0,1,20.921,2.176V11.008A113,113,0,0,0,50.657,9C36.431,9,23.544,11.427,13,15.946V29.837C22.456,24.481,35.594,21.552,50.657,21.552Z" transform="translate(-13 -9)" fill="#fff"/>
        <path id="Tracé_5" data-name="Tracé 5" d="M13,18.606V32.5c9.456-5.356,22.594-8.285,37.657-8.285a97.86,97.86,0,0,1,20.921,2.176V13.668A113,113,0,0,0,50.657,11.66C36.431,11.66,23.544,14.17,13,18.606Z" transform="translate(-13 10.6)" fill="#fff"/>
        <path id="Tracé_6" data-name="Tracé 6" d="M50.657,14.33c-14.226,0-27.113,2.427-37.657,6.946V35.167c9.456-5.356,22.594-8.285,37.657-8.285a97.86,97.86,0,0,1,20.921,2.176V16.338A106.252,106.252,0,0,0,50.657,14.33Z" transform="translate(-13 30.273)" fill="#fff"/>
      </g>
    </g>
  </g>
</svg>
